<?xml version="1.0" encoding="UTF-8"?>
<svg width="158px" height="45px" viewBox="0 0 158 45" version="1.1" xmlns="http://www.w3.org/2000/svg" xmlns:xlink="http://www.w3.org/1999/xlink">
    <title>Snapp-LaunchLogo-RGB-Blue</title>
    <g id="Furniture" stroke="none" stroke-width="1" fill="none" fill-rule="evenodd">
        <g id="Global-Header/DT/SNAPP" transform="translate(-180.000000, -21.000000)" fill="#1A2D59" fill-rule="nonzero">
            <g id="Snapp-LaunchLogo-RGB-Blue" transform="translate(180.000000, 21.000000)">
                <path d="M2.2027972,25.2062937 C2.8951049,28.1013986 4.97202797,31.4055944 8.05594406,34.4895105 L10.4475524,32.0979021 C7.14335664,28.7937063 4.72027972,24.8286713 3.77622378,21.1783217 C3.58741259,20.4230769 3.46153846,19.6993007 3.3986014,19.0384615 C2.01398601,20.7377622 1.63636364,22.7832168 2.2027972,25.2062937 Z M12.8391608,1.85664336 C18.1573427,0.975524476 25.7412587,4.18531469 32.0664336,10.5104895 L34.1748252,8.4020979 C34.3321678,8.24475524 34.3321678,7.99300699 34.1748252,7.83566434 C26.8426573,0.660839161 17.6223776,-1.95104895 12.7447552,1.6048951 C12.6188811,1.6993007 12.6818182,1.88811189 12.8391608,1.85664336 Z M5.94755245,6.01048951 C5.47552448,6.48251748 5.06643357,7.04895105 4.75174825,7.64685315 C4.68881119,7.77272727 4.81468531,7.8986014 4.94055944,7.8041958 C9.97552448,4.53146853 19.541958,7.61538462 27.2517483,15.2937063 L29.6433566,12.9020979 C21.2097902,4.46853147 10.6048951,1.38461538 5.94755245,6.01048951 Z M2.2972028,11.9265734 C0.84965035,13.3741259 0.125874126,15.3251748 -2.23597364e-15,17.5594406 C-2.23597364e-15,17.6853147 0.157342657,17.7482517 0.22027972,17.6538462 C0.597902098,17.0874126 1.03846154,16.5524476 1.54195804,16.048951 C7.20629371,10.3846154 15.513986,13.2482517 22.4055944,20.1398601 L24.7972028,17.7482517 C17.0244755,9.88111888 6.92307692,7.3006993 2.2972028,11.9265734 Z M32.034965,10.5104895 L29.6433566,12.9020979 C35.9685315,19.2272727 39.1783217,26.8426573 38.2972028,32.1608392 C38.2657343,32.2867133 38.4230769,32.3496503 38.5174825,32.2552448 C42.1363636,27.3146853 39.4300699,17.9055944 32.034965,10.5104895 L32.034965,10.5104895 Z M24.8601399,17.6853147 C32.5699301,25.3951049 35.6853147,35.0244755 32.3181818,40.0594406 C32.2552448,40.1538462 32.3496503,40.2482517 32.4440559,40.2167832 C33.0734266,39.9020979 33.6398601,39.493007 34.1433566,38.9895105 C38.7692308,34.3636364 35.6853147,23.7587413 27.2517483,15.2937063 L24.8601399,17.6853147 Z M20.0454545,22.5 C22.5,24.9545455 24.4825175,27.7867133 25.7097902,30.5559441 C22.9405594,29.3286713 20.1083916,27.3461538 17.6538462,24.8916084 L15.2622378,27.2832168 C18.8181818,30.8391608 23.034965,33.4825175 26.8426573,34.5524476 C26.8741259,34.5524476 26.9370629,34.5839161 26.9685315,34.5839161 C27.1573427,35.7167832 27.1573427,36.7552448 27.0314685,37.6363636 C23.0979021,37.1643357 17.6853147,34.4895105 12.8706294,29.6748252 L10.479021,32.0664336 C14.034965,35.6223776 18.2517483,38.2657343 22.0594406,39.3356643 C23.6013986,39.7762238 24.986014,39.9335664 26.1503497,39.8391608 C26.0559441,39.965035 25.9300699,40.0909091 25.8041958,40.2167832 C24.451049,41.5699301 21.965035,41.8846154 18.9440559,41.1293706 C15.3251748,40.2167832 11.3286713,37.7622378 8.02447552,34.458042 L5.91608392,36.5664336 C5.75874126,36.7237762 5.75874126,36.9755245 5.91608392,37.1328671 C13.6888112,44.7167832 23.6013986,47.1713287 28.1958042,42.6083916 C32.8216783,37.9825175 30.2412587,27.8811189 22.4370629,20.0454545 L20.0454545,22.5 Z M8.05594406,16.4265734 C7.08041958,16.520979 6.1993007,16.8041958 5.34965035,17.3076923 C5.41258741,17.5594406 5.47552448,17.8426573 5.53846154,18.0944056 C6.60839161,21.9020979 9.28321678,26.1188811 12.8076923,29.6748252 L15.1993007,27.2832168 C11.8951049,23.9475524 9.34615385,20.0454545 8.05594406,16.4265734 Z M17.6538462,24.8916084 L20.0454545,22.5 C17.3391608,19.7937063 14.4755245,17.8741259 11.8321678,16.9615385 C13.1853147,19.6678322 15.1363636,22.4055944 17.6538462,24.8916084 Z" id="Shape"></path>
                <path d="M122.318182,35.9685315 L122.318182,43.9300699 L117.818182,43.9300699 L117.818182,17.0244755 L122.318182,17.0244755 L122.318182,35.9685315 Z M128.108392,17.0244755 L122.821678,17.0244755 L122.821678,21.3356643 L128.108392,21.3356643 C130.437063,21.3356643 132.167832,23.034965 132.167832,25.2692308 C132.167832,27.534965 130.437063,29.2657343 128.108392,29.2657343 L122.821678,29.2657343 L122.821678,33.5769231 L128.108392,33.5769231 C133.08042,33.5769231 136.730769,30.0839161 136.730769,25.2692308 C136.699301,20.5174825 133.048951,17.0244755 128.108392,17.0244755 L128.108392,17.0244755 Z M142.93007,35.9685315 L142.93007,17.0244755 L138.43007,17.0244755 L138.43007,43.9300699 L142.93007,43.9300699 L142.93007,35.9685315 Z M148.72028,17.0244755 L143.433566,17.0244755 L143.433566,21.3356643 L148.72028,21.3356643 C151.048951,21.3356643 152.77972,23.034965 152.77972,25.2692308 C152.77972,27.534965 151.048951,29.2657343 148.72028,29.2657343 L143.433566,29.2657343 L143.433566,33.5769231 L148.72028,33.5769231 C153.692308,33.5769231 157.342657,30.0839161 157.342657,25.2692308 C157.342657,20.5174825 153.692308,17.0244755 148.72028,17.0244755 L148.72028,17.0244755 Z M53.1188811,22.4685315 C53.8111888,21.5559441 55.1328671,20.9895105 56.8006993,20.9895105 C59.2237762,20.9895105 61.8671329,22.1538462 63.6923077,23.979021 L66.3041958,20.486014 C64.4475524,18.2832168 60.6083916,16.6468531 57.1468531,16.6468531 C55.6678322,16.6468531 54.3146853,16.8986014 53.1188811,17.3706294 L53.1188811,22.4685315 Z M52.5839161,24.041958 C52.5839161,24.0104895 52.5839161,24.0104895 52.5839161,24.0104895 C52.5839161,24.0104895 52.5839161,24.0104895 52.5839161,23.979021 L52.5839161,17.5909091 C49.7832168,18.8811189 48.0524476,21.3986014 48.0524476,24.3566434 C48.0524476,34.1433566 62.2447552,30.6503497 62.3076923,36.1573427 L62.3076923,36.1888112 L62.3076923,36.2202797 L62.3076923,43.2062937 C65.2657343,41.7587413 66.9335664,39.0524476 66.9335664,36.1258741 C66.9335664,26.465035 52.6468531,29.7377622 52.5839161,24.041958 L52.5839161,24.041958 Z M61.8041958,38.013986 C61.0174825,39.2412587 59.4125874,39.965035 57.3356643,39.965035 C54.0314685,39.965035 51.6398601,38.3916084 49.5629371,36.3776224 L46.6678322,39.6818182 C48.9965035,42.2937063 53.2132867,44.3076923 57.3041958,44.3076923 C59.0034965,44.3076923 60.513986,43.993007 61.7727273,43.458042 L61.7727273,38.013986 L61.8041958,38.013986 Z M112.437063,34.2377622 L94.9405594,34.2377622 L91.0699301,43.9300699 L95.8216783,43.9300699 L97.9300699,38.548951 L109.29021,38.548951 L111.367133,43.9300699 L116.244755,43.9300699 L112.437063,34.2377622 Z M99.8181818,33.7342657 L103.657343,23.9475524 L107.465035,33.7342657 L112.248252,33.7342657 L105.576923,17.0244755 L101.800699,17.0244755 L95.1293706,33.7342657 L99.8181818,33.7342657 Z M89.5909091,40.7832168 L89.5909091,17.0244755 L85.0594406,17.0244755 L85.0594406,34.3321678 L89.5909091,40.7832168 Z M68.4125874,20.2027972 L68.4125874,43.9300699 L72.9125874,43.9300699 L72.9125874,26.6223776 L68.4125874,20.2027972 Z M85.0594406,35.2447552 L72.3461538,17.0244755 L68.4125874,17.0244755 L68.4125874,19.3216783 L72.9125874,25.7097902 L85.7202797,43.9300699 L89.5909091,43.9300699 L89.5909091,41.6958042 L85.0594406,35.2447552 Z" id="Shape"></path>
                <path d="M48.6188811,6.86013986 C49.3741259,7.23776224 50.034965,7.45804196 50.5699301,7.45804196 C51.2307692,7.45804196 51.7027972,7.11188811 51.7027972,6.60839161 C51.7027972,6.01048951 51.0734266,5.6958042 50.3496503,5.34965035 C49.3426573,4.84615385 48.1153846,4.24825175 48.1153846,2.64335664 C48.1153846,1.03846154 49.1853147,0.0944055944 50.979021,0.0944055944 C51.8916084,0.0944055944 52.7412587,0.314685315 53.5909091,0.818181818 L52.8356643,2.2027972 C52.1118881,1.85664336 51.5769231,1.73076923 51.1048951,1.73076923 C50.4755245,1.73076923 50.1923077,2.17132867 50.1923077,2.61188811 C50.1923077,3.14685315 50.7902098,3.43006993 51.4825175,3.74475524 C52.4895105,4.21678322 53.7167832,4.78321678 53.7167832,6.41958042 C53.7167832,8.15034965 52.6153846,9.15734266 50.7587413,9.15734266 C49.7517483,9.15734266 48.8706294,8.90559441 47.9265734,8.37062937 L48.6188811,6.86013986 Z M60.3881119,3.65034965 C60.3881119,6.32517483 58.3111888,6.60839161 57.3986014,6.60839161 L56.8006993,6.60839161 L56.8006993,9 L54.8181818,9 L54.8181818,1.1013986 C55.479021,1.06993007 56.6433566,1.06993007 57.4300699,1.06993007 C59.3496503,1.1013986 60.3881119,1.98251748 60.3881119,3.65034965 Z M58.5,3.93356643 C58.5,3.08391608 58.3111888,2.58041958 57.3986014,2.58041958 C57.2097902,2.58041958 56.9895105,2.58041958 56.8006993,2.58041958 L56.7692308,2.58041958 L56.7692308,5.0979021 L56.8006993,5.0979021 L57.3671329,5.0979021 C58.1538462,5.12937063 58.5,4.75174825 58.5,3.93356643 L58.5,3.93356643 Z M67.3426573,9 C67.3426573,9 65.6118881,9 65.2027972,9 C65.0769231,7.96153846 64.6678322,7.11188811 64.3216783,6.57692308 L64.2902098,6.57692308 C64.1958042,6.57692308 64.0699301,6.57692308 63.9440559,6.57692308 L63.3461538,6.57692308 L63.3461538,8.96853147 L61.3636364,8.96853147 L61.3636364,1.1013986 C62.0244755,1.06993007 63.1888112,1.06993007 63.9755245,1.06993007 C65.486014,1.06993007 67.1223776,1.73076923 67.1223776,3.65034965 C67.1223776,4.59440559 66.7762238,5.41258741 66.1153846,5.91608392 L66.0839161,5.91608392 L66.0839161,5.94755245 C66.493007,6.57692308 67.1538462,7.8041958 67.3426573,9 Z M65.0454545,3.93356643 C65.0454545,3.08391608 64.8566434,2.58041958 63.9440559,2.58041958 C63.7552448,2.58041958 63.534965,2.58041958 63.3461538,2.58041958 L63.3146853,2.58041958 L63.3146853,5.0979021 L63.3461538,5.0979021 L63.9125874,5.0979021 C64.6993007,5.12937063 65.0454545,4.75174825 65.0454545,3.93356643 Z M68.5699301,1.1013986 L68.5699301,9 L70.520979,9 L70.520979,1.1013986 L68.5699301,1.1013986 Z M76.4370629,9 L78.513986,9 L78.513986,1.1013986 L76.7832168,1.1013986 L76.7832168,6.26223776 L74.4230769,1.1013986 L72.2832168,1.1013986 L72.2832168,9 L74.013986,9 L74.013986,4.02797203 L76.4370629,9 Z M83.2657343,0.944055944 C82.0699301,0.944055944 81.2202797,1.29020979 80.6223776,1.95104895 C80.0559441,2.64335664 79.7727273,3.65034965 79.7727273,5.03496503 C79.7727273,8.08741259 80.6538462,9.22027972 83.0769231,9.22027972 C83.8321678,9.22027972 84.9965035,9.03146853 85.8461538,8.59090909 L85.8461538,4.68881119 L83.2657343,4.68881119 L83.2657343,6.04195804 L84.0839161,6.04195804 L84.0839161,7.64685315 L84.0524476,7.64685315 C83.8636364,7.70979021 83.3916084,7.74125874 83.1713287,7.74125874 C82.1328671,7.74125874 81.7237762,6.98601399 81.7237762,5.0034965 C81.7237762,3.27272727 82.3216783,2.42307692 83.548951,2.42307692 C83.958042,2.42307692 84.5559441,2.61188811 85.1853147,2.92657343 L85.7202797,1.6048951 C85.0594406,1.1958042 84.1153846,0.944055944 83.2657343,0.944055944 M87.1993007,1.1013986 L87.1993007,7.61538462 C87.1993007,7.61538462 87.1993007,8.24475524 87.6083916,8.65384615 C87.8601399,8.90559441 88.2377622,9.06293706 88.7097902,9.06293706 C90.1258741,9.06293706 91.6993007,9.03146853 91.9195804,9 L91.9195804,7.45804196 L89.0874126,7.45804196 L89.0874126,5.72727273 L91.6363636,5.72727273 L91.6363636,4.18531469 L89.0874126,4.18531469 L89.0874126,2.64335664 L91.8881119,2.64335664 L91.8881119,1.1013986 L87.1993007,1.1013986 Z M99.3146853,9 C99.3146853,9 97.5839161,9 97.1748252,9 C97.048951,7.96153846 96.6398601,7.11188811 96.2937063,6.57692308 L96.2622378,6.57692308 C96.1678322,6.57692308 96.041958,6.57692308 95.9160839,6.57692308 L95.3181818,6.57692308 L95.3181818,8.96853147 L93.3356643,8.96853147 L93.3356643,1.1013986 C93.9965035,1.06993007 95.1608392,1.06993007 95.9475524,1.06993007 C97.458042,1.06993007 99.0944056,1.73076923 99.0944056,3.65034965 C99.0944056,4.59440559 98.7482517,5.41258741 98.0874126,5.91608392 L98.0559441,5.91608392 L98.0559441,5.94755245 C98.465035,6.57692308 99.1258741,7.8041958 99.3146853,9 L99.3146853,9 Z M97.0174825,3.93356643 C97.0174825,3.08391608 96.8286713,2.58041958 95.9160839,2.58041958 C95.7272727,2.58041958 95.506993,2.58041958 95.3181818,2.58041958 L95.2867133,2.58041958 L95.2867133,5.0979021 L95.3181818,5.0979021 L95.8846154,5.0979021 C96.6713287,5.12937063 97.0174825,4.75174825 97.0174825,3.93356643 L97.0174825,3.93356643 Z" id="Shape"></path>
                <path d="M103.783217,2.8951049 L103.783217,9 L101.98951,9 L101.98951,0.157342657 L104.286713,0.157342657 L107.181818,6.32517483 L107.181818,0.157342657 L109.006993,0.157342657 L109.006993,9 L106.678322,9 L103.783217,2.8951049 Z M118.856643,9 L120.902098,9 L120.902098,2.70629371 L122.412587,2.70629371 L122.412587,1.1013986 L117.062937,1.1013986 L117.062937,2.70629371 L118.825175,2.70629371 L118.825175,9 L118.856643,9 Z M123.608392,1.1013986 L123.608392,6.45104895 C123.608392,8.33916084 124.520979,9.18881119 126.566434,9.18881119 C128.674825,9.18881119 129.65035,8.24475524 129.65035,6.16783217 L129.65035,1.1013986 L127.604895,1.1013986 L127.604895,6.35664336 C127.604895,7.17482517 127.573427,7.64685315 126.660839,7.64685315 C125.77972,7.64685315 125.653846,7.23776224 125.653846,6.32517483 L125.653846,1.1013986 L123.608392,1.1013986 Z M138.20979,1.1013986 L138.20979,7.61538462 C138.20979,7.61538462 138.20979,8.24475524 138.618881,8.65384615 C138.870629,8.90559441 139.248252,9.06293706 139.72028,9.06293706 C141.136364,9.06293706 142.70979,9.03146853 142.93007,9 L142.93007,7.45804196 L140.097902,7.45804196 L140.097902,5.72727273 L142.646853,5.72727273 L142.646853,4.18531469 L140.097902,4.18531469 L140.097902,2.64335664 L142.898601,2.64335664 L142.898601,1.1013986 L138.20979,1.1013986 Z M117.031469,9 L114.923077,9 L114.63986,7.74125874 L112.437063,7.74125874 L112.153846,9 L110.13986,9 L112.059441,1.1013986 L115.143357,1.1013986 L117.031469,9 Z M114.388112,6.26223776 L113.538462,2.83216783 L113.444056,2.83216783 L112.657343,6.26223776 L114.388112,6.26223776 Z M137.076923,9 C137.076923,9 135.346154,9 134.937063,9 C134.811189,7.96153846 134.402098,7.11188811 134.055944,6.57692308 L134.024476,6.57692308 C133.93007,6.57692308 133.804196,6.57692308 133.678322,6.57692308 L133.08042,6.57692308 L133.08042,8.96853147 L131.097902,8.96853147 L131.097902,1.1013986 C131.758741,1.06993007 132.923077,1.06993007 133.70979,1.06993007 C135.22028,1.06993007 136.856643,1.73076923 136.856643,3.65034965 C136.856643,4.59440559 136.51049,5.41258741 135.84965,5.91608392 L135.818182,5.91608392 L135.818182,5.94755245 C136.227273,6.57692308 136.888112,7.8041958 137.076923,9 L137.076923,9 Z M134.77972,3.93356643 C134.77972,3.08391608 134.590909,2.58041958 133.678322,2.58041958 C133.48951,2.58041958 133.269231,2.58041958 133.08042,2.58041958 L133.048951,2.58041958 L133.048951,5.0979021 L133.08042,5.0979021 L133.646853,5.0979021 C134.433566,5.12937063 134.77972,4.75174825 134.77972,3.93356643 L134.77972,3.93356643 Z" id="Shape"></path>
            </g>
        </g>
    </g>
</svg>